<svg id="cholo_Image" data-name="cholo Image" xmlns="http://www.w3.org/2000/svg" viewBox="0 0 195.25 225.25"><defs><style>.cls-1{opacity:0.5;}.cls-2{fill:#fff;}</style></defs><g class="cls-1"><path class="cls-2" d="M195.12,225.12H.12V.12h195ZM37.88,101c-.57,2.33-1.11,4.09-1.41,5.89-.62,3.76-2,7.7-1.48,11.3,1.48,9.35,7.57,15.5,16.38,18.27,13.77,4.32,29.72.32,39.77-14.22,2.47-3.57,4.44-7.5,6.7-11.22,1.94-3.2,3.89-3.25,5.85-.07a33.42,33.42,0,0,1,3.25,6.32c4.24,12,22.18,22.37,36.38,19.24,7.64-1.69,19.43-7.36,20.49-17.74a45.83,45.83,0,0,0-.52-11.86c-.84-5.2-.5-6,4.58-7.94,7.79-2.94,15.56-5.94,23.21-9.22,1.31-.56,2.95-2.79,2.77-4-.82-5.47-8.66-11.61-14.47-12.31s-11.82-1.81-17.73-2.77c-3.29-.53-5.13-2.47-6.22-5.68-4.14-12.17-8.46-24.28-12.78-36.4a11,11,0,0,0-2.09-3.44c-4.29-4.84-8.88-9.43-13-14.43-6.53-8-9.46-9-19-5.39a39.92,39.92,0,0,1-21.66,2.4c-4.27-.75-8.71-.6-13.07-.75-3.38-.12-5.72,1.38-7.72,4.26C62.3,16.72,58,21.87,53.93,27.26a19.32,19.32,0,0,0-3,5.37c-2.36,7.2-4.35,14.51-6.74,21.7a82.29,82.29,0,0,1-4.88,11.72c-1.05,2.06-2.67,4.4-4.64,5.31a189.91,189.91,0,0,1-20.14,8C8.94,81.25,5.61,85.16,2.75,89.79c-2,3.32-1.38,5.21,2.32,6,4.26.94,8.58,1.62,12.89,2.27C24.45,99.1,31,100,37.88,101ZM101,160.39c3.77,4,8,8.1,11.94,12.57,9.44,10.78,15,23.22,14.83,37.77,0,1.47-1.39,2.89-2,4.39a26.17,26.17,0,0,0-.86,2.94c.92.2,2,.82,2.72.51,1.42-.66,3.14-1.55,3.77-2.82,1.53-3.09,3.18-6.36,3.59-9.71,1.77-14.46.92-28.64-5.41-42.15-5.24-11.2-12.53-19.43-25.92-20.1-9-.45-17,1-23.1,8.62C67.78,168.12,64,186,67.21,205.51,68,209.92,71,214,73.36,218c.42.72,2.57.42,3.93.59-.26-1.22-.44-2.47-.81-3.67C76,213.48,74.93,212,75,210.6a48.67,48.67,0,0,1,1-10c2.43-10.69,5.94-20.85,14.32-28.67C94.24,168.19,97.7,163.94,101,160.39Z"/><path d="M37.88,101C31,100,24.45,99.1,18,98.1c-4.31-.65-8.63-1.33-12.89-2.27-3.7-.83-4.37-2.72-2.32-6,2.86-4.63,6.19-8.54,11.75-10.38a189.91,189.91,0,0,0,20.14-8c2-.91,3.59-3.25,4.64-5.31a82.29,82.29,0,0,0,4.88-11.72c2.39-7.19,4.38-14.5,6.74-21.7a19.32,19.32,0,0,1,3-5.37c4-5.39,8.37-10.54,12.21-16.06,2-2.88,4.34-4.38,7.72-4.26,4.36.15,8.8,0,13.07.75a39.92,39.92,0,0,0,21.66-2.4c9.54-3.64,12.47-2.59,19,5.39,4.09,5,8.68,9.59,13,14.43a11,11,0,0,1,2.09,3.44C147,40.67,151.29,52.78,155.43,65c1.09,3.21,2.93,5.15,6.22,5.68,5.91,1,11.79,2.07,17.73,2.77S193,80.24,193.85,85.71c.18,1.21-1.46,3.44-2.77,4C183.43,93,175.66,96,167.87,98.93c-5.08,1.91-5.42,2.74-4.58,7.94a45.83,45.83,0,0,1,.52,11.86c-1.06,10.38-12.85,16-20.49,17.74-14.2,3.13-32.14-7.26-36.38-19.24a33.42,33.42,0,0,0-3.25-6.32c-2-3.18-3.91-3.13-5.85.07-2.26,3.72-4.23,7.65-6.7,11.22-10,14.54-26,18.54-39.77,14.22-8.81-2.77-14.9-8.92-16.38-18.27-.57-3.6.86-7.54,1.48-11.3C36.77,105.05,37.31,103.29,37.88,101ZM7.42,90.9l.71,1.38c.6.11,1.2.24,1.8.32,23.74,3.34,47.46,6.91,71.24,9.94A195.7,195.7,0,0,0,162.05,96c9.26-2.73,18-7.08,27.4-10.83-3.09-6-7.82-7.48-12.81-8.14-13.49-1.81-27-3.6-40.51-5.07-27.18-3-54.37-3.28-81.47.9-12.46,1.92-25,4-36.2,10.24C14.54,85.27,11.08,88.27,7.42,90.9ZM135.77,37a4.72,4.72,0,0,0,.12-1.18c-2-10.82-8.16-19.2-15.9-26.5a6.47,6.47,0,0,0-5.83-.79c-6.19,3-12.69,3.59-19.34,3.53-6.37-.06-12.74-.35-19.11-.36-1.54,0-3.65.18-4.55,1.15A52.1,52.1,0,0,0,57.88,38.59Zm-8.49,8.15c-6.22-7-14-3.66-21.5-4.44,1.68,4.73,3.13,8.77,4.59,12.88l-4,2.27,4.33,1.83-3.61,2.8c4.26-1.2,4.89.95,5.15,3.14l22,2.16-5.61-7.11,3.38-2C127.37,54.34,125,48.55,127.28,45.18Z"/><path d="M101,160.39c-3.26,3.55-6.72,7.8-10.68,11.52-8.38,7.82-11.89,18-14.32,28.67a48.67,48.67,0,0,0-1,10c0,1.44,1.07,2.88,1.53,4.35.37,1.2.55,2.45.81,3.67-1.36-.17-3.51.13-3.93-.59-2.35-4-5.41-8.11-6.15-12.52-3.24-19.48.57-37.39,13.28-53.1,6.15-7.59,14.1-9.07,23.1-8.62,13.39.67,20.68,8.9,25.92,20.1,6.33,13.51,7.18,27.69,5.41,42.15-.41,3.35-2.06,6.62-3.59,9.71-.63,1.27-2.35,2.16-3.77,2.82-.68.31-1.8-.31-2.72-.51a26.17,26.17,0,0,1,.86-2.94c.64-1.5,2-2.92,2-4.39.14-14.55-5.39-27-14.83-37.77C109,168.49,104.73,164.34,101,160.39Z"/><path class="cls-2" d="M7.42,90.9c3.66-2.63,7.12-5.63,11-7.8,11.23-6.22,23.74-8.32,36.2-10.24C81.76,68.68,109,69,136.13,72c13.53,1.47,27,3.26,40.51,5.07,5,.66,9.72,2.11,12.81,8.14-9.37,3.75-18.14,8.1-27.4,10.83a195.7,195.7,0,0,1-80.88,6.54c-23.78-3-47.5-6.6-71.24-9.94-.6-.08-1.2-.21-1.8-.32Z"/><path class="cls-2" d="M135.77,37,57.88,38.59A52.1,52.1,0,0,1,71.16,12.88c.9-1,3-1.15,4.55-1.15,6.37,0,12.74.3,19.11.36,6.65.06,13.15-.53,19.34-3.53a6.47,6.47,0,0,1,5.83.79c7.74,7.3,13.93,15.68,15.9,26.5A4.72,4.72,0,0,1,135.77,37Z"/><path class="cls-2" d="M127.28,45.18c-2.25,3.37.09,9.16,4.79,11.52l-3.38,2,5.61,7.11-22-2.16c-.26-2.19-.89-4.34-5.15-3.14l3.61-2.8-4.33-1.83,4-2.27c-1.46-4.11-2.91-8.15-4.59-12.88C113.29,41.52,121.06,38.17,127.28,45.18Z"/></g></svg>